HIERARCHY
ROOT Pelvis
{
	OFFSET 0.000000 0.000000 0.000000
	CHANNELS 6 Xposition Yposition Zposition Zrotation Yrotation Xrotation 
	JOINT Left_hip
	{
		OFFSET 0.069463 -0.088608 -0.009542
		CHANNELS 3 Zrotation Yrotation Xrotation
		JOINT Left_knee
		{
			OFFSET 0.030639 -0.359740 -0.005288
			CHANNELS 3 Zrotation Yrotation Xrotation
			JOINT Left_ankle
			{
				OFFSET -0.011068 -0.376034 -0.042462
				CHANNELS 3 Zrotation Yrotation Xrotation
				JOINT Left_foot
				{
					OFFSET 0.023192 -0.053321 0.111332
					CHANNELS 3 Zrotation Yrotation Xrotation
					End Site
					{
						OFFSET 0.000000 0.000000 0.000000
					}
				}
			}
		}
	}
	JOINT Right_hip
	{
		OFFSET -0.067438 -0.088025 -0.006263
		CHANNELS 3 Zrotation Yrotation Xrotation
		JOINT Right_knee
		{
			OFFSET -0.035962 -0.366229 -0.008063
			CHANNELS 3 Zrotation Yrotation Xrotation
			JOINT Right_ankle
			{
				OFFSET 0.013608 -0.375719 -0.040481
				CHANNELS 3 Zrotation Yrotation Xrotation
				JOINT Right_foot
				{
					OFFSET -0.021034 -0.045527 0.114617
					CHANNELS 3 Zrotation Yrotation Xrotation
					End Site
					{
						OFFSET 0.000000 0.000000 0.000000
					}
				}
			}
		}
	}
	JOINT Spine1
	{
		OFFSET -0.002610 0.101823 -0.019986
		CHANNELS 3 Zrotation Yrotation Xrotation
		JOINT Spine2
		{
			OFFSET 0.004114 0.128714 -0.000938
			CHANNELS 3 Zrotation Yrotation Xrotation
			JOINT Spine3
			{
				OFFSET 0.002191 0.048470 0.027684
				CHANNELS 3 Zrotation Yrotation Xrotation
				JOINT Neck
				{
					OFFSET -0.002856 0.198873 -0.044022
					CHANNELS 3 Zrotation Yrotation Xrotation
					JOINT Head
					{
						OFFSET 0.002981 0.062960 0.049860
						CHANNELS 3 Zrotation Yrotation Xrotation
						End Site
						{
							OFFSET 0.000000 0.000000 0.000000
						}
					}
				}
				JOINT Left_collar
				{
					OFFSET 0.073708 0.112550 -0.033440
					CHANNELS 3 Zrotation Yrotation Xrotation
					JOINT Left_shoulder
					{
						OFFSET 0.083291 0.030786 -0.008013
						CHANNELS 3 Zrotation Yrotation Xrotation
						JOINT Left_elbow
						{
							OFFSET 0.245601 -0.011792 -0.027873
							CHANNELS 3 Zrotation Yrotation Xrotation
							JOINT Left_wrist
							{
								OFFSET 0.232258 0.008622 -0.000487
								CHANNELS 3 Zrotation Yrotation Xrotation
								JOINT Left_palm
								{
									OFFSET 0.077300 -0.009457 -0.012851
									CHANNELS 3 Zrotation Yrotation Xrotation
									End Site
									{
										OFFSET 0.000000 0.000000 0.000000
									}
								}
							}
						}
					}
				}
				JOINT Right_collar
				{
					OFFSET -0.075339 0.110574 -0.037874
					CHANNELS 3 Zrotation Yrotation Xrotation
					JOINT Right_shoulder
					{
						OFFSET -0.086522 0.031207 -0.009986
						CHANNELS 3 Zrotation Yrotation Xrotation
						JOINT Right_elbow
						{
							OFFSET -0.237313 -0.011478 -0.019859
							CHANNELS 3 Zrotation Yrotation Xrotation
							JOINT Right_wrist
							{
								OFFSET -0.237599 0.007976 -0.003742
								CHANNELS 3 Zrotation Yrotation Xrotation
								JOINT Right_palm
								{
									OFFSET -0.076920 -0.006943 -0.009920
									CHANNELS 3 Zrotation Yrotation Xrotation
									End Site
									{
										OFFSET 0.000000 0.000000 0.000000
									}
								}
							}
						}
					}
				}
			}
		}
	}
}
MOTION
Frames: 10
Frame Time: 0.100000
-0.143868 -0.039289 0.249358 30.659771 60.860041 -156.404541 2.904856 -2.192735 -25.909213 0.426182 -0.933076 52.795471 -5.255011 -0.393282 -2.772058 0.663371 13.497535 -5.367213 10.558670 -2.581346 10.043228 -3.814001 -5.321538 -7.543306 -3.860657 -0.270641 -0.996346 9.132476 -19.420961 -1.848042 3.931552 5.321340 34.348806 5.942722 -10.218814 -3.165744 6.003538 -0.929369 -5.305562 11.388524 -36.518079 -10.590442 24.481992 -33.260268 -25.576308 -22.165359 -16.603032 5.699398 -65.919905 -7.955824 5.299551 5.182141 -17.390755 -2.787268 15.366868 2.842807 8.424424 -10.423972 -9.643116 -13.851553 7.690122 27.726556 -11.241583 71.187961 31.340303 28.259620 -171.883926 39.405337 -127.129132 -59.182382 18.346101 17.201062 22.498385 20.192256 -8.879968 
-0.117800 -0.046243 0.252994 25.728336 59.464880 -154.243312 -0.225073 -3.308659 -28.536341 2.040582 -2.012334 22.337198 -4.780830 -2.070335 -7.076996 4.312635 13.774457 -0.434562 9.170596 -0.542609 1.207516 -4.427896 -8.227512 -6.712265 1.708196 -2.540870 -0.497620 2.486514 -15.688499 -0.287397 4.040422 4.570375 36.961187 5.625685 -9.873104 -6.194287 6.488504 -0.717086 -6.071168 16.237655 -34.338143 -18.561149 29.207045 -34.320867 -30.356240 -22.552820 -20.062325 5.255755 -65.754251 -9.564756 6.644610 5.473527 -15.480666 -6.988499 15.753663 1.556849 10.046233 -8.988390 -9.874241 -15.149951 6.743842 29.497265 -11.462196 71.462266 29.556043 28.726206 -171.762801 40.573518 -128.636940 -58.086920 19.848172 15.327363 20.540781 19.739752 -9.170112 
-0.112538 -0.045219 0.256587 27.239025 58.216867 -149.724846 0.586685 -0.472585 -25.344724 2.706163 -2.691391 0.582843 -7.789065 -4.056496 -7.270859 8.269236 12.443133 2.556056 9.824562 -0.147743 -1.834154 -3.401845 -9.530545 -7.831216 3.826472 -1.845692 -1.030613 0.626840 -14.725785 0.383852 4.543968 4.113416 37.281415 5.761210 -8.883134 -6.621219 7.259608 0.363522 -7.447318 17.854143 -33.055818 -20.728202 31.463166 -35.312215 -32.161172 -23.008529 -22.815999 4.715593 -66.233042 -9.463592 9.132427 4.647658 -16.807076 -6.924970 17.065162 0.032376 11.657846 -9.219799 -10.519433 -17.776373 6.729294 32.532757 -10.464816 70.503476 30.279010 28.571899 -172.780219 41.161889 -131.154714 -58.492161 20.741931 13.004207 20.453757 19.684163 -10.128804 
-0.116362 -0.041064 0.255667 30.593584 56.715026 -145.965204 2.539187 1.099900 -25.143219 3.147311 -1.879801 -1.275405 -9.438754 -4.050409 -5.694341 8.910790 11.744522 2.974039 11.690453 0.874543 -2.354588 -2.792914 -10.015812 -7.544806 1.443699 -0.515858 -2.714488 4.257581 -17.491030 0.829232 4.962217 3.866508 38.070019 6.648082 -8.039008 -7.736397 8.227137 0.962342 -8.763419 19.363249 -33.513358 -20.728902 32.306150 -35.202759 -32.728857 -24.185579 -23.504724 4.795376 -66.607526 -8.599143 11.461508 4.722296 -19.674076 -1.554453 16.918132 -1.317113 16.023454 -9.317311 -10.456232 -20.811192 7.459237 34.287970 -9.472458 69.754036 31.260548 29.064539 -175.221497 41.472994 -133.287649 -59.560946 20.338904 9.820271 20.108363 19.076763 -10.478181 
-0.119334 -0.040376 0.247556 30.510868 56.154388 -146.337346 2.348286 0.218495 -25.541277 3.496808 -2.676975 0.474875 -9.969232 -3.427283 -4.792402 9.610071 11.121483 2.747421 11.890993 1.341101 -1.516064 -3.422603 -9.285887 -7.345052 0.895909 -1.191351 -4.235658 3.541433 -17.625572 1.393423 4.968849 4.076217 37.565526 6.983178 -8.490821 -7.545573 8.297078 1.006273 -8.939213 18.710355 -33.486806 -20.075820 32.658083 -35.236299 -33.080276 -23.060063 -25.818726 5.067385 -65.645849 -8.776959 12.990170 3.330617 -20.732631 1.496714 15.788374 -1.032480 15.826292 -9.826302 -10.192132 -21.431896 6.205269 35.730691 -9.767890 69.538891 31.346406 28.935347 -175.075415 41.259829 -132.983855 -58.659802 19.405714 8.667963 19.814101 18.883500 -11.031401 
-0.121191 -0.037470 0.235743 35.245142 59.344948 -144.102721 3.056949 1.347692 -25.956405 3.426215 -2.059235 6.714933 -9.760482 -3.142774 -3.958402 8.572623 12.487987 0.855971 12.154570 1.788078 0.943234 -4.385016 -5.323780 -6.386872 -0.881535 -0.258534 -6.218863 5.822665 -18.777154 0.074592 4.990344 3.877748 37.262530 6.436614 -8.618450 -6.901711 7.759763 0.641215 -8.377808 16.633782 -31.951332 -17.415940 29.652403 -33.472220 -31.620844 -22.278992 -24.046252 4.118776 -64.569692 -8.996337 11.728568 2.812386 -20.202446 4.750162 12.559131 -0.305606 17.644203 -9.636720 -9.948507 -21.226055 5.542520 33.695474 -10.358097 69.098825 32.221477 28.151906 -173.408773 42.119848 -130.496032 -58.143596 19.450959 11.490772 20.778828 19.243028 -11.514311 
-0.127303 -0.032761 0.214638 49.910684 66.189620 -133.262772 5.385516 2.285309 -24.893877 2.155590 -5.454837 14.957200 -10.477102 -4.934946 -4.354186 7.194293 12.369015 -1.228658 12.109211 1.678810 4.340280 -5.350919 -0.367822 -4.984488 -2.397200 1.180090 -8.196337 9.314865 -20.578303 -2.082719 3.778099 3.355349 36.056023 6.226671 -9.690989 -6.295212 7.149502 -1.010479 -6.811124 11.216226 -27.666522 -11.557265 22.482706 -28.603081 -27.357697 -21.670937 -17.768080 3.101631 -64.704088 -8.631913 7.846878 4.312842 -17.849757 2.544882 12.018112 0.744484 13.729530 -9.455430 -9.726321 -18.119112 6.503277 25.328215 -11.201859 67.801794 30.694221 25.107687 -168.878215 40.983589 -124.873811 -55.160662 18.392020 14.614778 21.300833 19.307722 -9.970929 
-0.146045 -0.030354 0.176144 95.062759 73.461718 -90.170407 4.697782 -2.039906 -20.449007 0.937504 -15.524266 17.999606 -8.441323 -6.097779 -6.950669 5.319336 12.156612 -2.370736 10.175594 4.247139 4.380418 -7.546449 4.602106 -1.691662 -2.390821 0.492495 -9.763551 10.589390 -21.814513 -2.941104 1.268166 2.831181 30.564724 5.202343 -10.224269 -5.626719 5.350013 -3.122872 -4.697273 5.789972 -20.040005 -6.495022 12.446898 -21.969711 -22.127425 -20.773054 -10.172746 2.792264 -65.328425 -7.200988 5.035192 6.609883 -14.910013 0.026094 6.689207 2.554676 7.303172 -9.179803 -7.871634 -14.963946 7.057566 15.127830 -13.677959 67.841777 28.644342 24.008428 -163.425543 36.800163 -119.283102 -41.571671 12.398284 12.136670 18.528835 17.019203 -6.967450 
-0.183348 -0.031859 0.136249 154.439726 62.768560 -32.249236 1.957422 -4.809676 -13.497386 0.470960 -19.109362 15.303265 -4.098631 -2.810364 -11.258125 5.029633 10.782635 -1.546597 4.101623 6.970823 -0.503732 -8.172610 4.119863 4.742594 -4.523507 -0.343858 -12.275992 14.802410 -27.378672 -2.288786 -1.518122 2.433941 21.105960 3.472696 -8.548502 -5.074589 2.905538 -3.827804 -4.328122 0.775330 -11.795135 -0.241588 1.205621 -13.715360 -15.865584 -19.425884 -3.264939 4.348866 -66.497464 -2.331018 5.721237 10.470994 -17.137694 5.144389 -12.860258 2.527031 0.336645 -10.392498 -2.583428 -16.939150 6.922532 8.009626 -14.131125 70.442874 28.740398 24.486652 -155.433733 32.153740 -115.773380 -3.003375 2.831384 -15.571579 9.427312 10.532326 -2.283558 
-0.227010 -0.032570 0.110909 172.558499 43.293284 -20.472324 -0.755180 -1.350363 -0.804487 0.191625 -20.189077 7.690300 -1.532808 -2.497260 -14.751017 3.729174 9.423654 0.733617 -3.117554 3.195203 -1.449821 -7.596827 -3.799232 7.983656 -6.235316 -1.009240 -13.040544 20.142840 -31.331228 -2.346945 -1.962564 2.535796 15.508624 2.287729 -5.861387 -2.614329 1.532322 -2.710223 -5.537641 -1.750735 -5.347406 4.243469 -7.161841 -7.348043 -10.102937 -20.101043 2.059361 4.598558 -66.507395 1.556378 4.041989 14.817178 -18.353755 7.056068 -29.032656 0.782766 -2.473160 -11.963814 1.116689 -18.193076 9.983968 4.795420 -13.224030 69.078670 30.148985 20.653523 -147.231845 27.021684 -112.209156 30.442873 10.699084 -35.605352 1.372973 6.392959 3.348327 
